<mxfile host="app.diagrams.net" agent="Mozilla/5.0 (Windows NT 10.0; Win64; x64) AppleWebKit/537.36 (KHTML, like Gecko) Chrome/133.0.0.0 Safari/537.36" version="26.0.16">
  <diagram name="PÃ¡gina-1" id="Lxj4u8aUidJW1hZ8fKff">
    <mxGraphModel dx="1222" dy="1755" grid="1" gridSize="10" guides="1" tooltips="1" connect="1" arrows="1" fold="1" page="1" pageScale="1" pageWidth="827" pageHeight="1169" math="0" shadow="0">
      <root>
        <mxCell id="0" />
        <mxCell id="1" parent="0" />
        <mxCell id="DUKZ3nCbwLyEP81gWKmx-1" value="Aparato" style="swimlane;whiteSpace=wrap;html=1;fillColor=#e1d5e7;strokeColor=#9673a6;" vertex="1" parent="1">
          <mxGeometry x="200" y="190" width="130" height="100" as="geometry" />
        </mxCell>
        <mxCell id="DUKZ3nCbwLyEP81gWKmx-2" value="&lt;b&gt;PK&lt;span style=&quot;white-space: pre;&quot;&gt;&#x9;&lt;/span&gt;ID&lt;/b&gt;&lt;div&gt;&lt;b&gt;FK&lt;span style=&quot;white-space: pre;&quot;&gt;&#x9;&lt;/span&gt;ID_Sala&lt;/b&gt;&lt;/div&gt;&lt;div&gt;Descripcion&lt;/div&gt;&lt;div&gt;Estado&lt;/div&gt;" style="text;html=1;align=center;verticalAlign=middle;resizable=0;points=[];autosize=1;strokeColor=none;fillColor=none;" vertex="1" parent="DUKZ3nCbwLyEP81gWKmx-1">
          <mxGeometry x="20" y="24" width="90" height="70" as="geometry" />
        </mxCell>
        <mxCell id="DUKZ3nCbwLyEP81gWKmx-3" value="Sala" style="swimlane;whiteSpace=wrap;html=1;fillColor=#e1d5e7;strokeColor=#9673a6;" vertex="1" parent="1">
          <mxGeometry x="390" y="-20" width="116" height="110" as="geometry" />
        </mxCell>
        <mxCell id="DUKZ3nCbwLyEP81gWKmx-4" value="&lt;b&gt;PK&lt;span style=&quot;white-space: pre;&quot;&gt;&#x9;&lt;/span&gt;ID&lt;/b&gt;&lt;div&gt;MetrosCuadrados&lt;/div&gt;&lt;div&gt;Ubicacion&lt;/div&gt;&lt;div&gt;TipoSala&lt;/div&gt;" style="text;html=1;align=center;verticalAlign=middle;resizable=0;points=[];autosize=1;strokeColor=none;fillColor=none;" vertex="1" parent="DUKZ3nCbwLyEP81gWKmx-3">
          <mxGeometry x="-10" y="28" width="120" height="70" as="geometry" />
        </mxCell>
        <mxCell id="DUKZ3nCbwLyEP81gWKmx-5" value="Entrenador" style="swimlane;whiteSpace=wrap;html=1;fillColor=#e1d5e7;strokeColor=#9673a6;" vertex="1" parent="1">
          <mxGeometry x="870" y="35" width="110" height="125" as="geometry" />
        </mxCell>
        <mxCell id="DUKZ3nCbwLyEP81gWKmx-6" value="&lt;b&gt;PK&lt;span style=&quot;white-space: pre;&quot;&gt;&#x9;&lt;/span&gt;ID&lt;/b&gt;&lt;div&gt;DocumentoiIdent&lt;/div&gt;&lt;div&gt;Nombre&lt;/div&gt;&lt;div&gt;Telefono&lt;/div&gt;&lt;div&gt;Titulacion&lt;/div&gt;&lt;div&gt;Experiencia&lt;br&gt;&lt;div&gt;&lt;br&gt;&lt;/div&gt;&lt;/div&gt;" style="text;html=1;align=center;verticalAlign=middle;resizable=0;points=[];autosize=1;strokeColor=none;fillColor=none;" vertex="1" parent="DUKZ3nCbwLyEP81gWKmx-5">
          <mxGeometry x="1" y="24" width="110" height="110" as="geometry" />
        </mxCell>
        <mxCell id="DUKZ3nCbwLyEP81gWKmx-7" value="Clase" style="swimlane;whiteSpace=wrap;html=1;fillColor=#e1d5e7;strokeColor=#9673a6;" vertex="1" parent="1">
          <mxGeometry x="610" y="35" width="130" height="115" as="geometry" />
        </mxCell>
        <mxCell id="DUKZ3nCbwLyEP81gWKmx-8" value="&lt;b&gt;PK&lt;span style=&quot;white-space: pre;&quot;&gt;&#x9;&lt;/span&gt;ID&lt;/b&gt;&lt;div&gt;&lt;b&gt;FK&lt;span style=&quot;white-space: pre;&quot;&gt;&#x9;&lt;/span&gt;ID_Sala&lt;/b&gt;&lt;/div&gt;&lt;div&gt;&lt;b&gt;FK&lt;span style=&quot;white-space: pre;&quot;&gt;&#x9;&lt;/span&gt;ID_Entrenador&lt;/b&gt;&lt;/div&gt;&lt;div&gt;Descripcion&lt;/div&gt;&lt;div&gt;DiaHora&lt;/div&gt;" style="text;html=1;align=center;verticalAlign=middle;resizable=0;points=[];autosize=1;strokeColor=none;fillColor=none;" vertex="1" parent="DUKZ3nCbwLyEP81gWKmx-7">
          <mxGeometry y="23" width="130" height="90" as="geometry" />
        </mxCell>
        <mxCell id="DUKZ3nCbwLyEP81gWKmx-19" value="" style="edgeStyle=entityRelationEdgeStyle;fontSize=12;html=1;endArrow=ERzeroToMany;endFill=1;rounded=0;fillColor=#e1d5e7;strokeColor=#9673a6;entryX=0;entryY=0.5;entryDx=0;entryDy=0;" edge="1" parent="DUKZ3nCbwLyEP81gWKmx-7" target="DUKZ3nCbwLyEP81gWKmx-9">
          <mxGeometry width="100" height="100" relative="1" as="geometry">
            <mxPoint x="60" y="115" as="sourcePoint" />
            <mxPoint x="90" y="255" as="targetPoint" />
          </mxGeometry>
        </mxCell>
        <mxCell id="DUKZ3nCbwLyEP81gWKmx-9" value="SocioClase" style="swimlane;whiteSpace=wrap;html=1;fillColor=#e1d5e7;strokeColor=#9673a6;" vertex="1" parent="1">
          <mxGeometry x="730" y="240" width="120" height="114" as="geometry" />
        </mxCell>
        <mxCell id="DUKZ3nCbwLyEP81gWKmx-10" value="&lt;b&gt;PK&lt;span style=&quot;white-space: pre;&quot;&gt;&#x9;&lt;/span&gt;ID&lt;/b&gt;&lt;div&gt;&lt;b&gt;FK&lt;span style=&quot;white-space: pre;&quot;&gt;&#x9;&lt;/span&gt;ID_Socio&lt;/b&gt;&lt;/div&gt;&lt;div&gt;&lt;b&gt;FK&lt;span style=&quot;white-space: pre;&quot;&gt;&#x9;&lt;/span&gt;ID_Clase&lt;/b&gt;&lt;/div&gt;&lt;div&gt;FechaInscripcion&lt;br&gt;&lt;div&gt;&lt;br&gt;&lt;/div&gt;&lt;/div&gt;" style="text;html=1;align=center;verticalAlign=middle;resizable=0;points=[];autosize=1;strokeColor=none;fillColor=none;" vertex="1" parent="DUKZ3nCbwLyEP81gWKmx-9">
          <mxGeometry x="5" y="24" width="110" height="90" as="geometry" />
        </mxCell>
        <mxCell id="DUKZ3nCbwLyEP81gWKmx-11" value="Socio" style="swimlane;whiteSpace=wrap;html=1;fillColor=#e1d5e7;strokeColor=#9673a6;" vertex="1" parent="1">
          <mxGeometry x="984" y="240" width="113" height="120" as="geometry" />
        </mxCell>
        <mxCell id="DUKZ3nCbwLyEP81gWKmx-12" value="&lt;b&gt;PK&lt;span style=&quot;white-space: pre;&quot;&gt;&#x9;&lt;/span&gt;ID&lt;/b&gt;&lt;div&gt;Nombre&lt;/div&gt;&lt;div&gt;Direccion&lt;/div&gt;&lt;div&gt;Telefono&lt;/div&gt;&lt;div&gt;Profesion&lt;/div&gt;&lt;div&gt;DatosBancarios&lt;br&gt;&lt;div&gt;&lt;br&gt;&lt;/div&gt;&lt;/div&gt;" style="text;html=1;align=center;verticalAlign=middle;resizable=0;points=[];autosize=1;strokeColor=none;fillColor=none;" vertex="1" parent="DUKZ3nCbwLyEP81gWKmx-11">
          <mxGeometry y="25" width="110" height="110" as="geometry" />
        </mxCell>
        <mxCell id="DUKZ3nCbwLyEP81gWKmx-13" value="" style="edgeStyle=entityRelationEdgeStyle;fontSize=12;html=1;endArrow=ERzeroToMany;endFill=1;rounded=0;entryX=1;entryY=0.5;entryDx=0;entryDy=0;fillColor=#e1d5e7;strokeColor=#9673a6;" edge="1" parent="1" target="DUKZ3nCbwLyEP81gWKmx-1">
          <mxGeometry width="100" height="100" relative="1" as="geometry">
            <mxPoint x="410" y="90" as="sourcePoint" />
            <mxPoint x="510" y="20" as="targetPoint" />
          </mxGeometry>
        </mxCell>
        <mxCell id="DUKZ3nCbwLyEP81gWKmx-16" value="" style="edgeStyle=entityRelationEdgeStyle;fontSize=12;html=1;endArrow=ERzeroToMany;endFill=1;rounded=0;exitX=1;exitY=1;exitDx=0;exitDy=0;entryX=-0.011;entryY=0.503;entryDx=0;entryDy=0;entryPerimeter=0;fillColor=#e1d5e7;strokeColor=#9673a6;" edge="1" parent="1" target="DUKZ3nCbwLyEP81gWKmx-8">
          <mxGeometry width="100" height="100" relative="1" as="geometry">
            <mxPoint x="506" y="40" as="sourcePoint" />
            <mxPoint x="607" y="-110" as="targetPoint" />
          </mxGeometry>
        </mxCell>
        <mxCell id="DUKZ3nCbwLyEP81gWKmx-18" value="" style="edgeStyle=entityRelationEdgeStyle;fontSize=12;html=1;endArrow=ERzeroToMany;endFill=1;rounded=0;entryX=-0.011;entryY=0.391;entryDx=0;entryDy=0;entryPerimeter=0;fillColor=#e1d5e7;strokeColor=#9673a6;" edge="1" parent="1" target="DUKZ3nCbwLyEP81gWKmx-6">
          <mxGeometry width="100" height="100" relative="1" as="geometry">
            <mxPoint x="740" y="100" as="sourcePoint" />
            <mxPoint x="840" as="targetPoint" />
          </mxGeometry>
        </mxCell>
        <mxCell id="DUKZ3nCbwLyEP81gWKmx-21" value="" style="edgeStyle=entityRelationEdgeStyle;fontSize=12;html=1;endArrow=ERzeroToMany;endFill=1;rounded=0;entryX=-0.025;entryY=0.302;entryDx=0;entryDy=0;entryPerimeter=0;fillColor=#e1d5e7;strokeColor=#9673a6;" edge="1" parent="1" target="DUKZ3nCbwLyEP81gWKmx-12">
          <mxGeometry width="100" height="100" relative="1" as="geometry">
            <mxPoint x="850" y="300" as="sourcePoint" />
            <mxPoint x="950" y="200" as="targetPoint" />
          </mxGeometry>
        </mxCell>
      </root>
    </mxGraphModel>
  </diagram>
</mxfile>
